HIERARCHY
ROOT Hips
{
	OFFSET 0.000000 0.000000 0.000000
	CHANNELS 6 Xposition Yposition Zposition Xrotation Yrotation Zrotation
	JOINT LeftUpLeg_virtual
	{
		OFFSET 0.000000 0.000000 0.000000
		CHANNELS 3 Xrotation Yrotation Zrotation
		JOINT LeftUpLeg
		{
			OFFSET 10.205400 -3.823500 0.155100
			CHANNELS 3 Xrotation Yrotation Zrotation
			JOINT LeftLeg
			{
				OFFSET 0.708757 -12.982077 0.567790
				CHANNELS 3 Xrotation Yrotation Zrotation
				JOINT LeftFoot
				{
					OFFSET -0.708756 -10.717838 -2.184338
					CHANNELS 3 Xrotation Yrotation Zrotation
					JOINT LeftToeBase
					{
						OFFSET 0.108149 -7.191104 7.560241
						CHANNELS 3 Xrotation Yrotation Zrotation
						JOINT LeftToe_End
						{
							OFFSET 0.070230 0.081724 4.490308
							CHANNELS 3 Xrotation Yrotation Zrotation
							End Site
							{
								OFFSET 0 0 0
							}
						}
					}
				}
			}
		}
	}
	JOINT RightUpLeg_virtual
	{
		OFFSET 0.000000 0.000000 0.000000
		CHANNELS 3 Xrotation Yrotation Zrotation
		JOINT RightUpLeg
		{
			OFFSET -10.205400 -3.823500 0.005500
			CHANNELS 3 Xrotation Yrotation Zrotation
			JOINT RightLeg
			{
				OFFSET -0.708756 -12.982134 0.610632
				CHANNELS 3 Xrotation Yrotation Zrotation
				JOINT RightFoot
				{
					OFFSET 0.708754 -10.717769 -1.945823
					CHANNELS 3 Xrotation Yrotation Zrotation
					JOINT RightToeBase
					{
						OFFSET -0.108140 -7.191069 7.372968
						CHANNELS 3 Xrotation Yrotation Zrotation
						JOINT RightToe_End
						{
							OFFSET -0.070227 0.081735 4.479403
							CHANNELS 3 Xrotation Yrotation Zrotation
							End Site
							{
								OFFSET 0 0 0
							}
						}
					}
				}
			}
		}
	}
	JOINT Spine_virtual
	{
		OFFSET 0.000000 0.000000 0.000000
		CHANNELS 3 Xrotation Yrotation Zrotation
		JOINT Spine
		{
			OFFSET 0.000000 6.876099 0.125700
			CHANNELS 3 Xrotation Yrotation Zrotation
			JOINT Spine1
			{
				OFFSET 0.000000 5.730043 0.104720
				CHANNELS 3 Xrotation Yrotation Zrotation
				JOINT Spine1_split
				{
					OFFSET 0.000000 5.730043 0.104720
					CHANNELS 3 Xrotation Yrotation Zrotation
					JOINT Spine2
					{
						OFFSET 0.000000 5.730043 0.104720
						CHANNELS 3 Xrotation Yrotation Zrotation
						JOINT Neck_virtual
						{
							OFFSET 0.000000 0.000000 0.000000
							CHANNELS 3 Xrotation Yrotation Zrotation
							JOINT Neck
							{
								OFFSET 0.000000 10.314075 0.188496
								CHANNELS 3 Xrotation Yrotation Zrotation
								JOINT Head
								{
									OFFSET 0.000000 7.643700 -2.377400
									CHANNELS 3 Xrotation Yrotation Zrotation
									JOINT HeadTop_End
									{
										OFFSET 0.000000 43.788605 -13.619600
										CHANNELS 3 Xrotation Yrotation Zrotation
										End Site
										{
											OFFSET 0 0 0
										}
									}
								}
							}
						}
						JOINT LeftShoulder_virtual
						{
							OFFSET 0.000000 0.000000 0.000000
							CHANNELS 3 Xrotation Yrotation Zrotation
							JOINT LeftShoulder
							{
								OFFSET 2.196100 4.412489 0.087492
								CHANNELS 3 Xrotation Yrotation Zrotation
								JOINT LeftShoulder_split
								{
									OFFSET 2.196100 4.412489 0.087492
									CHANNELS 3 Xrotation Yrotation Zrotation
									JOINT LeftArm
									{
										OFFSET 8.771219 -2.981674 -0.026999
										CHANNELS 3 Xrotation Yrotation Zrotation
										JOINT LeftForeArm
										{
											OFFSET 8.512804 0.000000 -0.000000
											CHANNELS 3 Xrotation Yrotation Zrotation
											JOINT LeftHand
											{
												OFFSET 18.484802 0.000000 -0.000000
												CHANNELS 3 Xrotation Yrotation Zrotation
												End Site
												{
													OFFSET 0 0 0
												}
											}
										}
									}
								}
							}
						}
						JOINT RightShoulder_virtual
						{
							OFFSET 0.000000 0.000000 0.000000
							CHANNELS 3 Xrotation Yrotation Zrotation
							JOINT RightShoulder
							{
								OFFSET -2.196100 4.412496 0.070690
								CHANNELS 3 Xrotation Yrotation Zrotation
								JOINT RightShoulder_split
								{
									OFFSET -2.196100 4.412496 0.070690
									CHANNELS 3 Xrotation Yrotation Zrotation
									JOINT RightArm
									{
										OFFSET -8.771282 -2.981682 -0.094208
										CHANNELS 3 Xrotation Yrotation Zrotation
										JOINT RightForeArm
										{
											OFFSET -8.494598 0.000000 0.000000
											CHANNELS 3 Xrotation Yrotation Zrotation
											JOINT RightHand
											{
												OFFSET -18.483803 0.000000 0.000001
												CHANNELS 3 Xrotation Yrotation Zrotation
												End Site
												{
													OFFSET 0 0 0
												}
											}
										}
									}
								}
							}
						}
					}
				}
			}
		}
	}
}
MOTION
Frames: 10
Frame Time: 0.03333333
0.075117 27.794460 -0.121660 0.000000 0.000000 0.000000 -15.904690 4.482780 0.576514 -15.634074 -1.612039 16.983412 59.543745 -0.549370 -0.297115 -34.204211 2.879302 -15.879500 -0.548860 -0.071832 0.923125 0.000000 0.000000 0.000000 -16.380418 2.716959 0.418155 -8.294869 -5.192546 -20.751493 57.489450 4.614738 1.912318 -37.542066 -7.988585 13.701938 2.686215 0.212016 -0.931162 0.000000 0.000000 0.000000 -15.222079 1.649602 -0.015469 18.799015 -0.051014 2.559446 5.817539 -0.032144 -0.202594 2.171590 5.459509 -0.378638 0.000000 0.000000 0.000000 6.008537 -0.167213 0.415040 -11.056666 -1.328536 2.625267 -17.334465 2.040810 -0.831834 0.000000 0.000000 0.000000 7.870233 -0.210366 0.719686 3.591567 -7.836164 -4.675282 -4.940514 -1.086201 -4.218791 -10.541750 -17.533830 -58.388576 70.493781 -61.704749 70.901257 0.000000 0.000000 0.000000 7.509146 -0.083015 -0.100339 10.089059 -5.641948 16.105642 3.699899 2.783031 -0.996725 -27.637148 11.812381 60.424450 89.865516 61.336151 -84.543836 0.000000 0.000000 0.000000 
0.028866 27.787708 -0.036814 0.000000 0.000000 0.000000 -16.006244 4.560093 0.499793 -15.551764 -1.869924 17.134050 59.478469 -0.659294 -0.311279 -34.343468 2.854268 -15.850625 -0.418955 -0.058932 0.939976 0.000000 0.000000 0.000000 -16.474468 3.154201 0.414228 -7.971214 -5.174219 -20.657432 57.643907 4.642709 1.921763 -37.820503 -7.925163 13.463296 3.004635 0.258768 -0.964225 0.000000 0.000000 0.000000 -15.385450 2.000423 -0.075469 18.739348 -0.136976 2.518838 6.003677 -0.009946 -0.134042 2.034053 5.548899 -0.136611 0.000000 0.000000 0.000000 6.104356 -0.192389 0.460620 -11.328243 -1.089981 2.192086 -17.495763 2.274343 -0.872297 0.000000 0.000000 0.000000 7.920059 -0.154111 0.794435 3.683121 -7.799294 -4.306557 -4.598001 -1.169094 -4.395451 -12.540483 -17.880815 -60.020731 68.078825 -61.287615 68.616640 0.000000 0.000000 0.000000 7.621626 -0.089466 -0.058666 9.912036 -5.930145 16.149842 3.788384 2.064834 0.624195 -27.180263 10.516207 60.778712 87.561495 62.451090 -82.614690 0.000000 0.000000 0.000000 
-0.021236 27.798668 0.049892 0.000000 0.000000 0.000000 -16.313731 4.715288 0.470073 -15.329810 -2.171342 17.092924 59.472404 -0.779974 -0.248846 -34.627806 2.893511 -15.891482 -0.246537 -0.009514 0.858885 0.000000 0.000000 0.000000 -16.694910 3.600106 0.407088 -7.301597 -5.394874 -20.621810 57.659118 4.812639 1.883073 -38.000830 -7.935556 13.507099 2.939558 0.244850 -1.001104 0.000000 0.000000 0.000000 -15.778908 2.542444 -0.134726 18.869682 -0.331950 2.330302 6.361784 0.085629 -0.005104 1.842899 4.814681 0.033453 0.000000 0.000000 0.000000 6.398852 -0.106413 0.464726 -11.209590 -0.828311 1.325491 -18.033883 2.399700 -0.859576 0.000000 0.000000 0.000000 8.057568 -0.034435 0.875736 3.510505 -8.503307 -3.997583 -4.395445 -1.937107 -3.590363 -12.823060 -17.086949 -60.114462 61.703000 -61.989158 62.550804 0.000000 0.000000 0.000000 7.947045 0.017939 0.063779 9.478850 -6.027849 16.247569 2.366774 1.571642 1.066810 -25.145625 11.274431 59.717799 83.698443 65.811038 -79.765497 0.000000 0.000000 0.000000 
-0.055167 27.839048 0.118790 0.000000 0.000000 0.000000 -16.776036 4.896730 0.509930 -14.886930 -2.393796 16.775544 59.451264 -0.844875 -0.098276 -34.967696 2.978466 -15.891277 -0.116182 0.059030 0.713902 0.000000 0.000000 0.000000 -17.003942 3.946319 0.425765 -6.311730 -5.843549 -20.656784 57.477449 5.030331 1.846383 -38.184364 -8.027911 13.622847 2.663505 0.176211 -1.003990 0.000000 0.000000 0.000000 -16.312507 3.023069 -0.138195 19.124437 -0.624797 2.044911 6.806842 0.210407 0.115463 1.420517 3.512520 0.650015 0.000000 0.000000 0.000000 6.836949 0.005612 0.429502 -10.516432 -0.544931 0.197050 -18.671893 2.506257 -0.914974 0.000000 0.000000 0.000000 8.245486 0.074634 0.927599 3.141076 -9.749366 -3.564809 -4.300434 -3.281461 -2.387143 -11.176744 -15.636072 -58.083013 53.447388 -63.966511 54.617109 0.000000 0.000000 0.000000 8.375403 0.141569 0.205234 8.910209 -5.913537 16.095556 0.026761 1.241568 0.753132 -20.917927 13.554647 56.524412 80.482407 71.146672 -77.749799 0.000000 0.000000 0.000000 
-0.063643 27.935226 0.188883 0.000000 0.000000 0.000000 -17.341804 5.022404 0.648926 -14.138936 -2.461309 16.185223 59.200016 -0.817539 0.101681 -35.231007 3.064976 -15.743166 -0.095688 0.122222 0.564223 0.000000 0.000000 0.000000 -17.382294 4.210190 0.524389 -5.108249 -6.479835 -20.711777 56.954178 5.118437 1.872969 -38.334983 -8.188775 13.527879 2.521415 0.086641 -0.956416 0.000000 0.000000 0.000000 -16.966152 3.312335 -0.055410 19.375578 -1.024621 1.716595 7.223370 0.274657 0.186318 0.642984 2.271574 1.174650 0.000000 0.000000 0.000000 7.396414 0.023926 0.357869 -8.914773 -0.207922 -0.953306 -19.137447 2.597075 -1.065343 0.000000 0.000000 0.000000 8.457116 0.077367 0.946715 2.684921 -11.215049 -2.817964 -4.389960 -4.040446 -1.773506 -8.012862 -14.188337 -53.696915 44.198253 -67.302143 45.751455 0.000000 0.000000 0.000000 8.836316 0.142459 0.324022 8.279918 -5.661135 15.457565 -1.739682 1.235071 0.051582 -14.288862 16.020601 50.919016 77.701366 77.741664 -75.850084 0.000000 0.000000 0.000000 
-0.046679 28.116678 0.227175 0.000000 0.000000 0.000000 -17.873937 5.071779 0.881070 -13.088958 -2.415774 15.411391 58.583892 -0.731092 0.334943 -35.238937 3.090634 -15.488888 -0.197529 0.160657 0.450838 0.000000 0.000000 0.000000 -17.738840 4.412905 0.718915 -3.861187 -7.179163 -20.737479 55.994557 5.042899 1.992549 -38.343599 -8.369704 13.223843 2.591417 0.023450 -0.869491 0.000000 0.000000 0.000000 -17.633378 3.368134 0.134887 19.492308 -1.499420 1.404913 7.530030 0.181235 0.199429 -0.241706 1.510728 1.079277 0.000000 0.000000 0.000000 8.026858 -0.100721 0.282364 -6.117880 0.119203 -1.875901 -19.218810 2.629411 -1.355051 0.000000 0.000000 0.000000 8.649197 -0.086140 0.943208 2.299602 -12.628817 -1.659594 -4.149022 -4.193449 -1.831145 -3.975291 -12.883031 -46.902660 33.474866 -71.758910 35.440325 0.000000 0.000000 0.000000 9.212633 -0.039918 0.410201 7.615409 -5.172390 14.114052 -2.848194 1.435644 -0.393151 -6.237958 16.787176 43.201428 66.053742 84.380294 -64.513746 0.000000 0.000000 0.000000 
-0.012112 28.366911 0.221127 0.000000 0.000000 0.000000 -18.340757 5.045243 1.156500 -11.890469 -2.308286 14.653718 57.578044 -0.647193 0.570860 -34.856040 3.042955 -15.253522 -0.354135 0.165839 0.389684 0.000000 0.000000 0.000000 -18.022021 4.624364 0.998013 -2.657369 -7.818633 -20.762216 54.576855 4.885892 2.152569 -38.079964 -8.511742 12.970907 2.637200 0.032322 -0.812933 0.000000 0.000000 0.000000 -18.268306 3.354250 0.407294 19.427353 -2.027605 1.116664 7.790705 -0.082064 0.153867 -0.721696 1.578351 0.808160 0.000000 0.000000 0.000000 8.629184 -0.400300 0.254048 -2.009894 0.377189 -2.425232 -18.868073 2.620239 -1.693274 0.000000 0.000000 0.000000 8.857423 -0.396522 0.897177 2.159217 -13.825802 -0.018932 -3.615884 -4.545710 -2.240472 0.918416 -11.244885 -37.998549 19.599166 -76.142498 21.801320 0.000000 0.000000 0.000000 9.385891 -0.395014 0.498889 6.920492 -4.311264 12.219091 -3.441868 1.772664 -0.406932 0.619367 15.036236 34.842257 -23.628857 86.738717 25.257488 0.000000 0.000000 0.000000 
0.041171 28.644812 0.188522 0.000000 0.000000 0.000000 -18.698620 5.053080 1.398724 -10.753394 -2.247043 14.099798 56.315699 -0.642201 0.758060 -34.154317 2.923199 -15.135202 -0.492191 0.144431 0.376867 0.000000 0.000000 0.000000 -18.207157 4.834389 1.260413 -1.626732 -8.257269 -20.766664 52.827319 4.728356 2.277151 -37.499395 -8.577569 13.001809 2.500751 0.126062 -0.845108 0.000000 0.000000 0.000000 -18.775417 3.423378 0.627045 19.253555 -2.547579 0.864464 8.078880 -0.461263 0.094571 -0.548525 1.943577 0.492236 0.000000 0.000000 0.000000 9.078363 -0.807697 0.315849 3.268476 0.533575 -2.583926 -18.120453 2.532990 -2.032492 0.000000 0.000000 0.000000 9.088858 -0.799851 0.813318 2.269027 -14.653715 1.839756 -3.165945 -4.991793 -2.392211 5.430730 -8.475393 -28.304099 2.219768 -78.819509 4.349467 0.000000 0.000000 0.000000 9.373778 -0.801235 0.597531 6.210670 -3.242358 10.092626 -3.318605 2.087864 -0.184802 3.011196 11.562154 27.240374 -59.427133 82.094503 61.242133 0.000000 0.000000 0.000000 
0.121926 28.874533 0.075830 0.000000 0.000000 0.000000 -18.877156 5.124677 1.524585 -10.004473 -2.309556 13.824661 55.165894 -0.722109 0.873250 -33.363408 2.755965 -15.156495 -0.563706 0.104573 0.393182 0.000000 0.000000 0.000000 -18.290891 5.055765 1.399965 -0.911568 -8.429791 -20.733797 51.139583 4.634545 2.309986 -36.849991 -8.554273 13.374974 2.181671 0.298552 -0.939263 0.000000 0.000000 0.000000 -19.030517 3.567478 0.666020 19.152199 -2.937431 0.686959 8.532613 -0.831927 0.105570 0.001307 2.254680 0.349435 0.000000 0.000000 0.000000 9.388603 -1.189140 0.497078 9.349725 0.589098 -2.498587 -16.988656 2.359125 -2.311483 0.000000 0.000000 0.000000 9.449667 -1.157607 0.736767 2.496757 -14.944024 3.548694 -2.754972 -5.204850 -2.239491 6.904286 -4.738304 -19.508653 -13.287824 -80.201802 -11.476970 0.000000 0.000000 0.000000 9.326847 -1.117121 0.709952 5.519485 -2.223292 8.191956 -2.751457 1.930113 -0.254953 -0.840654 8.480813 21.147461 -71.983528 78.387397 73.859384 0.000000 0.000000 0.000000 
0.209766 28.972965 -0.085604 0.000000 0.000000 0.000000 -18.887845 5.338228 1.476510 -9.902827 -2.492039 13.848361 54.553448 -0.836254 0.899339 -32.810453 2.580003 -15.206484 -0.599098 0.057723 0.429104 0.000000 0.000000 0.000000 -18.328507 5.296331 1.365188 -0.672811 -8.300423 -20.671240 50.034021 4.630520 2.238711 -36.480331 -8.463881 13.975623 1.836734 0.484475 -1.042543 0.000000 0.000000 0.000000 -18.969129 3.790534 0.495052 19.299791 -3.122388 0.575473 9.280082 -1.040104 0.247973 0.695750 2.053648 0.369525 0.000000 0.000000 0.000000 9.774029 -1.424001 0.783727 15.603777 0.511539 -2.354308 -15.561039 1.940576 -2.496978 0.000000 0.000000 0.000000 10.090940 -1.345644 0.746567 2.684330 -14.650819 4.819315 -2.794899 -4.832773 -2.194079 2.942293 -1.026110 -12.745538 -24.631978 -81.922136 -23.225922 0.000000 0.000000 0.000000 9.492156 -1.281067 0.860580 4.930133 -1.422807 7.048182 -2.022932 1.604287 -0.734399 -11.216504 7.414614 17.445825 -87.896038 76.170147 89.694147 0.000000 0.000000 0.000000 
